<svg xmlns:xlink="http://www.w3.org/1999/xlink" xmlns="http://www.w3.org/2000/svg" width="32" height="32" fill="currentColor"><defs><symbol xmlns="http://www.w3.org/2000/svg" viewBox="0 0 32 32" id="setting-icon-dfe8d2a9"><path fill="#161823" stroke="#161823" stroke-width="0.5px" d="M27.551 19.094a1 1 0 0 0 .079-.121l.005-.01.03-.065h.001l.028-.074.001-.003.022-.076v-.002l.004-.015.002-.01c.204-.866.308-1.779.308-2.714 0-.9-.103-1.814-.307-2.718l-.004-.017v-.002l-.001-.003-.011-.043-.001-.003-.013-.041-.002-.007-.013-.036-.005-.01a1 1 0 0 0-.117-.21l-.005-.007-.023-.028-.006-.007-.053-.059-.01-.009-.021-.02-.013-.012a1 1 0 0 0-.075-.06l-.014-.01-.026-.017-.01-.006-.03-.018-.008-.005-.073-.037-.007-.002-.034-.015-.008-.003a1 1 0 0 0-.284-.06h-.007l-.04-.002h-.026a2.77 2.77 0 0 1-2.392-1.38 2.76 2.76 0 0 1 .012-2.77l.002-.003.02-.037.003-.005.018-.036.003-.008.015-.034.004-.012a1 1 0 0 0 .042-.14l.003-.012.006-.033.002-.01.005-.036v-.007l.004-.038V7.97l.002-.038v-.044l-.001-.011-.002-.032-.001-.016-.006-.049-.003-.021-.005-.027-.003-.016-.008-.03-.002-.012-.01-.034-.003-.009-.012-.035-.002-.007-.014-.035-.003-.007-.015-.033-.004-.009a1 1 0 0 0-.132-.202l-.006-.006-.027-.03-.004-.004-.03-.03-.003-.002-.005-.006-.011-.01a12.1 12.1 0 0 0-4.71-2.721l-.014-.005-.008-.002h-.003l-.04-.012-.007-.001-.039-.01h-.009a1 1 0 0 0-.195-.017h-.011l-.036.002h-.007l-.038.005h-.006l-.04.006-.004.001-.04.008-.005.001-.037.01-.009.002-.033.01-.013.004-.028.01-.017.007-.023.01-.022.009-.017.008-.026.013-.013.007-.029.016-.01.006-.066.044-.008.006a1 1 0 0 0-.122.108 1 1 0 0 0-.08.096l-.004.006-.023.035-.003.004-.022.036-.002.003A2.77 2.77 0 0 1 16 6.317a2.79 2.79 0 0 1-2.405-1.402l-.002-.002-.022-.037-.002-.004-.05-.07-.008-.009-.02-.024-.011-.013-.034-.035-.013-.013-.021-.02-.01-.008-.026-.022-.006-.006-.03-.023-.005-.003-.032-.023-.004-.002-.034-.022-.005-.002-.034-.02-.008-.004-.03-.015-.014-.006-.027-.012-.019-.008-.021-.008-.026-.01q-.008-.001-.015-.004l-.032-.01-.01-.003-.036-.008-.008-.002-.037-.007-.006-.001-.039-.006h-.006l-.037-.004-.01-.001-.032-.002h-.062a1 1 0 0 0-.096.009l-.011.001-.038.007H12.6a1 1 0 0 0-.087.022l-.003.001-.012.004-.012.004a12.1 12.1 0 0 0-4.7 2.72l-.01.01-.006.006-.003.002-.061.064-.006.006-.023.028-.008.01a1 1 0 0 0-.08.122l-.006.012-.015.03-.004.009-.015.033-.003.007-.014.035-.002.007-.012.035-.003.009-.01.034-.002.011-.008.031q0 .009-.003.016l-.005.027-.003.021-.003.022-.003.027-.001.016-.002.032v.093l.001.007.004.038v.007l.005.037.002.009.006.033.003.013a1 1 0 0 0 .06.185l.005.008.017.036.003.005.02.037.002.003c.5.854.505 1.915.012 2.77a2.77 2.77 0 0 1-2.4 1.38H5.19l-.04.001h-.008l-.038.003-.01.002a1 1 0 0 0-.191.04l-.01.004-.034.012-.007.003-.036.015-.005.002-.036.017-.005.003-.034.018-.006.004-.068.042-.012.009a1 1 0 0 0-.11.092l-.01.01-.023.024-.007.007-.052.062-.005.007-.02.029-.007.009a1 1 0 0 0-.09.171l-.005.012-.013.035-.003.007-.012.04-.001.004-.011.043v.003l-.001.003-.004.016a12.4 12.4 0 0 0-.307 2.718c0 .935.103 1.848.308 2.714l.002.011.004.014v.002a1 1 0 0 0 .05.153l.032.065.005.01a1 1 0 0 0 .079.121l.013.017.037.044.013.013.04.04.01.01a1 1 0 0 0 .117.09l.004.003a1 1 0 0 0 .13.071l.004.002q.033.015.068.027l.005.002q.067.023.137.035l.017.003.062.008.023.002.051.002h.021a2.77 2.77 0 0 1 2.414 1.38 2.76 2.76 0 0 1-.012 2.77l-.002.003-.02.037-.003.005-.035.078-.005.012a1 1 0 0 0-.051.186l-.002.009-.005.036v.007l-.004.038v.007l-.002.038v.055l.003.033.001.015q0 .015.003.028 0 .01.003.02 0 .012.003.023l.005.026.003.016.007.03.003.013.01.033.003.009.012.035.002.007.014.035q0 .004.003.007l.015.033.004.01a1 1 0 0 0 .072.123 1 1 0 0 0 .06.078l.005.006q.03.034.062.064l.002.003.006.004.011.011a12 12 0 0 0 4.728 2.73h.002a1 1 0 0 0 .128.028l.008.001q.032.005.063.007h.005l.053.002h.018l.06-.002.02-.002.048-.006.018-.003a1 1 0 0 0 .135-.033l.012-.004.056-.02.008-.004.06-.028.008-.004a1 1 0 0 0 .12-.075l.002-.001.056-.044.004-.004.05-.047.002-.002a1 1 0 0 0 .093-.11l.011-.017.024-.037.014-.021q0-.002.003-.005A2.79 2.79 0 0 1 16 25.683c.99 0 1.911.536 2.402 1.398l.004.006a1 1 0 0 0 .08.118l.02.024.033.035.013.015a1 1 0 0 0 .107.091l.01.007a1 1 0 0 0 .108.068l.017.008.048.023.015.007.063.023.02.006.044.013.031.007a1 1 0 0 0 .104.017l.032.003.049.002h.028q.027 0 .052-.002l.017-.001a1 1 0 0 0 .115-.017l.015-.004.05-.013.008-.002a12 12 0 0 0 4.735-2.729l.012-.01.005-.005.002-.003.03-.03.004-.003.028-.03.005-.007a1 1 0 0 0 .152-.244l.003-.007.014-.035.002-.006.012-.036.002-.008.029-.12q0-.01.003-.02l.005-.05.002-.016.002-.031v-.056l-.001-.038v-.007l-.004-.038v-.007l-.006-.036-.001-.01a1 1 0 0 0-.092-.275l-.002-.005-.02-.037-.002-.003a2.76 2.76 0 0 1-.012-2.77 2.77 2.77 0 0 1 2.392-1.38h.035l.051-.002.024-.002.06-.008q.01 0 .018-.003a1 1 0 0 0 .136-.035l.007-.002.067-.027.005-.002a1 1 0 0 0 .128-.07l.006-.004a1 1 0 0 0 .115-.09l.013-.011a1 1 0 0 0 .102-.113Zm-4.782.812a4.64 4.64 0 0 0-.322 3.943 10.1 10.1 0 0 1-2.862 1.655A4.65 4.65 0 0 0 16 23.808a4.66 4.66 0 0 0-3.582 1.697 10.1 10.1 0 0 1-2.858-1.656 4.64 4.64 0 0 0-.322-3.943 4.65 4.65 0 0 0-3.263-2.255 10.2 10.2 0 0 1 .004-3.302 4.65 4.65 0 0 0 3.26-2.255 4.64 4.64 0 0 0 .321-3.942 10.2 10.2 0 0 1 2.86-1.655A4.66 4.66 0 0 0 16 8.192a4.65 4.65 0 0 0 3.583-1.694 10.2 10.2 0 0 1 2.864 1.654 4.64 4.64 0 0 0 .322 3.942 4.65 4.65 0 0 0 3.252 2.254 10.3 10.3 0 0 1 .004 3.303 4.65 4.65 0 0 0-3.256 2.255Z"></path><path fill="#161823" stroke="#161823" stroke-width="0.5px" d="M16 11.115A4.89 4.89 0 0 0 11.115 16 4.89 4.89 0 0 0 16 20.885 4.89 4.89 0 0 0 20.885 16 4.89 4.89 0 0 0 16 11.115Zm0 7.395A2.514 2.514 0 0 1 13.49 16 2.514 2.514 0 0 1 16 13.49 2.513 2.513 0 0 1 18.51 16 2.513 2.513 0 0 1 16 18.51Z"></path></symbol></defs><use xlink:href="#setting-icon-dfe8d2a9" fill="#161823"></use></svg>